<svg width="74" height="67" viewBox="0 0 74 67" fill="none" xmlns="http://www.w3.org/2000/svg">
<path d="M36.75 16.625C36.75 13.0446 35.3277 9.6108 32.7959 7.07906C30.2642 4.54732 26.8304 3.125 23.25 3.125H3V53.75H26.625C29.3103 53.75 31.8857 54.8167 33.7845 56.7155C35.6833 58.6143 36.75 61.1897 36.75 63.875M36.75 16.625V63.875M36.75 16.625C36.75 13.0446 38.1723 9.6108 40.7041 7.07906C43.2358 4.54732 46.6696 3.125 50.25 3.125H70.5V53.75H46.875C44.1897 53.75 41.6143 54.8167 39.7155 56.7155C37.8167 58.6143 36.75 61.1897 36.75 63.875" stroke="#FFDFB2" stroke-width="6" stroke-linecap="round" stroke-linejoin="round"/>
</svg>
